<svg width="200" height="400" xmlns="http://www.w3.org/2000/svg">
  <!-- Character: Friend (Alex) - Worried pose -->
  
  <!-- Body -->
  <rect x="75" y="200" width="50" height="120" fill="#F4A460" stroke="#D2691E" stroke-width="2" rx="10"/>
  
  <!-- Casual shirt -->
  <rect x="70" y="200" width="60" height="80" fill="#32CD32" stroke="#228B22" stroke-width="1" rx="5"/>
  
  <!-- Arms (fidgeting) -->
  <rect x="50" y="210" width="20" height="60" fill="#F4A460" stroke="#D2691E" stroke-width="1" rx="10"/>
  <rect x="130" y="210" width="20" height="60" fill="#F4A460" stroke="#D2691E" stroke-width="1" rx="10"/>
  
  <!-- Legs -->
  <rect x="80" y="280" width="15" height="80" fill="#4169E1" rx="7"/>
  <rect x="105" y="280" width="15" height="80" fill="#4169E1" rx="7"/>
  
  <!-- Shoes -->
  <rect x="75" y="355" width="25" height="15" fill="#8B4513" rx="7"/>
  <rect x="100" y="355" width="25" height="15" fill="#8B4513" rx="7"/>
  
  <!-- Head -->
  <circle cx="100" cy="120" r="40" fill="#F4A460" stroke="#D2691E" stroke-width="2"/>
  
  <!-- Hair (messy style) -->
  <path d="M 65 100 Q 80 70 100 75 Q 120 70 135 100 Q 125 80 100 85 Q 75 80 65 100" fill="#FF8C00"/>
  
  <!-- Eyes (worried) -->
  <path d="M 80 110 Q 85 115 90 110" stroke="#000" stroke-width="2" fill="none"/>
  <path d="M 110 110 Q 115 115 120 110" stroke="#000" stroke-width="2" fill="none"/>
  <circle cx="85" cy="115" r="4" fill="#000"/>
  <circle cx="115" cy="115" r="4" fill="#000"/>
  <circle cx="87" cy="113" r="1" fill="#FFF"/>
  <circle cx="117" cy="113" r="1" fill="#FFF"/>
  
  <!-- Worried eyebrows -->
  <path d="M 78 105 Q 85 100 92 105" stroke="#000" stroke-width="2" fill="none"/>
  <path d="M 108 105 Q 115 100 122 105" stroke="#000" stroke-width="2" fill="none"/>
  
  <!-- Nose -->
  <circle cx="100" cy="125" r="1" fill="#D2691E"/>
  
  <!-- Mouth (worried) -->
  <path d="M 92 138 Q 100 133 108 138" stroke="#000" stroke-width="2" fill="none"/>
  
  <!-- Sweat drop -->
  <ellipse cx="125" cy="105" rx="3" ry="5" fill="#87CEEB"/>
  
  <!-- Name label -->
  <text x="100" y="390" text-anchor="middle" font-family="Arial, sans-serif" font-size="12" fill="#333">Alex - Worried</text>
</svg>