<svg width="200" height="400" xmlns="http://www.w3.org/2000/svg">
  <!-- Character: Yuki - Smile pose -->
  
  <!-- Body -->
  <rect x="75" y="200" width="50" height="120" fill="#FFB6C1" stroke="#FF69B4" stroke-width="2" rx="10"/>
  
  <!-- School uniform -->
  <rect x="70" y="200" width="60" height="80" fill="#4169E1" stroke="#000080" stroke-width="1" rx="5"/>
  
  <!-- Arms -->
  <rect x="50" y="210" width="20" height="60" fill="#FFB6C1" stroke="#FF69B4" stroke-width="1" rx="10"/>
  <rect x="130" y="210" width="20" height="60" fill="#FFB6C1" stroke="#FF69B4" stroke-width="1" rx="10"/>
  
  <!-- Legs -->
  <rect x="80" y="280" width="15" height="80" fill="#FFB6C1" stroke="#FF69B4" stroke-width="1" rx="7"/>
  <rect x="105" y="280" width="15" height="80" fill="#FFB6C1" stroke="#FF69B4" stroke-width="1" rx="7"/>
  
  <!-- Shoes -->
  <rect x="75" y="355" width="25" height="15" fill="#000" rx="7"/>
  <rect x="100" y="355" width="25" height="15" fill="#000" rx="7"/>
  
  <!-- Head -->
  <circle cx="100" cy="120" r="40" fill="#FFB6C1" stroke="#FF69B4" stroke-width="2"/>
  
  <!-- Hair -->
  <path d="M 60 100 Q 100 60 140 100 Q 130 80 100 85 Q 70 80 60 100" fill="#8B4513"/>
  
  <!-- Eyes (happy) -->
  <path d="M 80 115 Q 85 110 90 115" stroke="#000" stroke-width="2" fill="none"/>
  <path d="M 110 115 Q 115 110 120 115" stroke="#000" stroke-width="2" fill="none"/>
  
  <!-- Nose -->
  <circle cx="100" cy="125" r="1" fill="#FF69B4"/>
  
  <!-- Mouth (smile) -->
  <path d="M 90 135 Q 100 145 110 135" stroke="#000" stroke-width="2" fill="none"/>
  
  <!-- Name label -->
  <text x="100" y="390" text-anchor="middle" font-family="Arial, sans-serif" font-size="12" fill="#333">Yuki - Smile</text>
</svg>