<svg width="800" height="600" xmlns="http://www.w3.org/2000/svg">
  <defs>
    <linearGradient id="libraryFloor" x1="0%" y1="0%" x2="100%" y2="0%">
      <stop offset="0%" style="stop-color:#F5F5DC;stop-opacity:1" />
      <stop offset="100%" style="stop-color:#FAEBD7;stop-opacity:1" />
    </linearGradient>
  </defs>
  
  <!-- Background -->
  <rect width="800" height="600" fill="#F0F8FF"/>
  
  <!-- Floor -->
  <rect x="0" y="400" width="800" height="200" fill="url(#libraryFloor)"/>
  
  <!-- Back wall -->
  <rect x="0" y="100" width="800" height="300" fill="#FFF8DC"/>
  
  <!-- Bookshelves -->
  <rect x="50" y="150" width="120" height="200" fill="#8B4513" stroke="#654321" stroke-width="2"/>
  <rect x="200" y="150" width="120" height="200" fill="#8B4513" stroke="#654321" stroke-width="2"/>
  <rect x="480" y="150" width="120" height="200" fill="#8B4513" stroke="#654321" stroke-width="2"/>
  <rect x="630" y="150" width="120" height="200" fill="#8B4513" stroke="#654321" stroke-width="2"/>
  
  <!-- Books on shelves -->
  <g fill="#FF6B6B">
    <rect x="55" y="160" width="8" height="25"/>
    <rect x="65" y="160" width="8" height="25"/>
    <rect x="75" y="160" width="8" height="25"/>
    <rect x="85" y="160" width="8" height="25"/>
    <rect x="95" y="160" width="8" height="25"/>
  </g>
  <g fill="#4ECDC4">
    <rect x="55" y="190" width="8" height="25"/>
    <rect x="65" y="190" width="8" height="25"/>
    <rect x="75" y="190" width="8" height="25"/>
    <rect x="85" y="190" width="8" height="25"/>
    <rect x="95" y="190" width="8" height="25"/>
  </g>
  <g fill="#45B7D1">
    <rect x="55" y="220" width="8" height="25"/>
    <rect x="65" y="220" width="8" height="25"/>
    <rect x="75" y="220" width="8" height="25"/>
    <rect x="85" y="220" width="8" height="25"/>
    <rect x="95" y="220" width="8" height="25"/>
  </g>
  
  <!-- More books on other shelves -->
  <g fill="#FFD93D">
    <rect x="205" y="160" width="8" height="25"/>
    <rect x="215" y="160" width="8" height="25"/>
    <rect x="225" y="160" width="8" height="25"/>
    <rect x="235" y="160" width="8" height="25"/>
    <rect x="245" y="160" width="8" height="25"/>
  </g>
  <g fill="#6BCF7F">
    <rect x="485" y="160" width="8" height="25"/>
    <rect x="495" y="160" width="8" height="25"/>
    <rect x="505" y="160" width="8" height="25"/>
    <rect x="515" y="160" width="8" height="25"/>
    <rect x="525" y="160" width="8" height="25"/>
  </g>
  
  <!-- Reading table -->
  <rect x="350" y="320" width="100" height="60" fill="#DEB887" stroke="#8B7355" stroke-width="2"/>
  
  <!-- Table legs -->
  <rect x="360" y="380" width="8" height="20" fill="#8B7355"/>
  <rect x="432" y="380" width="8" height="20" fill="#8B7355"/>
  
  <!-- Chairs -->
  <rect x="320" y="340" width="25" height="25" fill="#8B4513"/>
  <rect x="455" y="340" width="25" height="25" fill="#8B4513"/>
  
  <!-- Windows -->
  <rect x="350" y="120" width="100" height="80" fill="#87CEEB" stroke="#8B4513" stroke-width="3"/>
  <line x1="400" y1="120" x2="400" y2="200" stroke="#8B4513" stroke-width="2"/>
  <line x1="350" y1="160" x2="450" y2="160" stroke="#8B4513" stroke-width="2"/>
  
  <!-- Text label -->
  <text x="400" y="50" text-anchor="middle" font-family="Arial, sans-serif" font-size="24" fill="#333">Library</text>
</svg>